<svg width="42" height="42" viewBox="0 0 42 42" fill="none" xmlns="http://www.w3.org/2000/svg">
<path d="M27.624 26.4648L34.2481 33.2839" stroke="#015FFF" stroke-width="1.5" stroke-miterlimit="10"/>
<path d="M17.3454 10.2422C11.7492 10.2422 7.18091 14.945 7.18091 20.7059C7.18091 23.5276 8.32298 26.2317 10.1503 28.1128" stroke="#015FFF" stroke-width="1.5" stroke-miterlimit="10"/>
<path d="M13.3481 26.4663C15.1755 28.3474 17.688 29.5231 20.5432 29.5231C26.1394 29.5231 30.7077 24.8204 30.7077 19.0594C30.7077 13.2985 26.1394 8.5957 20.5432 8.5957" stroke="#015FFF" stroke-width="1.5" stroke-miterlimit="10"/>
<path d="M17.3455 10.83C17.6608 10.83 17.9165 10.5668 17.9165 10.2421C17.9165 9.91749 17.6608 9.6543 17.3455 9.6543C17.0301 9.6543 16.7744 9.91749 16.7744 10.2421C16.7744 10.5668 17.0301 10.83 17.3455 10.83Z" fill="#015FFF" stroke="#015FFF" stroke-width="1.5" stroke-miterlimit="10" stroke-linecap="round"/>
<path d="M20.6575 9.3007C20.9728 9.3007 21.2285 9.03751 21.2285 8.71285C21.2285 8.38819 20.9728 8.125 20.6575 8.125C20.3421 8.125 20.0864 8.38819 20.0864 8.71285C20.0864 9.03751 20.3421 9.3007 20.6575 9.3007Z" fill="#015FFF" stroke="#015FFF" stroke-width="1.5" stroke-miterlimit="10" stroke-linecap="round"/>
<path d="M13.3479 27.0527C13.6633 27.0527 13.9189 26.7895 13.9189 26.4648C13.9189 26.1401 13.6633 25.877 13.3479 25.877C13.0325 25.877 12.7769 26.1401 12.7769 26.4648C12.7769 26.7895 13.0325 27.0527 13.3479 27.0527Z" fill="#015FFF" stroke="#015FFF" stroke-width="1.5" stroke-miterlimit="10" stroke-linecap="round"/>
<path d="M9.57909 22.4667C9.89447 22.4667 10.1501 22.2035 10.1501 21.8789C10.1501 21.5542 9.89447 21.291 9.57909 21.291C9.26372 21.291 9.00806 21.5542 9.00806 21.8789C9.00806 22.2035 9.26372 22.4667 9.57909 22.4667Z" fill="#015FFF" stroke="#015FFF" stroke-width="1.5" stroke-miterlimit="10" stroke-linecap="round"/>
<path d="M34.248 33.871C34.5634 33.871 34.8191 33.6078 34.8191 33.2832C34.8191 32.9585 34.5634 32.6953 34.248 32.6953C33.9327 32.6953 33.677 32.9585 33.677 33.2832C33.677 33.6078 33.9327 33.871 34.248 33.871Z" fill="#015FFF" stroke="#015FFF" stroke-width="1.5" stroke-miterlimit="10" stroke-linecap="round"/>
<path d="M10.1504 28.5819C10.4658 28.5819 10.7214 28.3188 10.7214 27.9941C10.7214 27.6694 10.4658 27.4062 10.1504 27.4062C9.83501 27.4062 9.57935 27.6694 9.57935 27.9941C9.57935 28.3188 9.83501 28.5819 10.1504 28.5819Z" fill="#015FFF" stroke="#015FFF" stroke-width="1.5" stroke-miterlimit="10" stroke-linecap="round"/>
<path d="M27.9333 19.6953C27.9333 23.8286 24.6778 27.0682 20.7712 27.0682V29.5258" stroke="#015FFF" stroke-width="1.5" stroke-miterlimit="10"/>
<path d="M9.46513 21.881C9.0083 19.412 9.80775 16.943 11.4067 15.2971V12.2402" stroke="#015FFF" stroke-width="1.5" stroke-miterlimit="10"/>
</svg>
