<svg width="74" height="68" viewBox="0 0 74 68" fill="none" xmlns="http://www.w3.org/2000/svg">
<path fill-rule="evenodd" clip-rule="evenodd" d="M68.4726 65.7155L52.0703 48.8302L54.7345 46.2422L71.1369 63.1275L68.4726 65.7155Z" fill="#015FFF"/>
<path fill-rule="evenodd" clip-rule="evenodd" d="M0.924072 33.2732C0.924072 18.0335 13.0171 5.50586 27.9504 5.50586V9.22015C15.1693 9.22015 4.63836 19.9825 4.63836 33.2732C4.63836 39.7749 7.27659 46.0072 11.4661 50.3201L8.8019 52.9081C3.94184 47.9049 0.924072 40.7454 0.924072 33.2732Z" fill="#015FFF"/>
<path fill-rule="evenodd" clip-rule="evenodd" d="M35.8686 1.43164C50.8019 1.43164 62.895 13.9593 62.895 29.199C62.895 44.4386 50.8019 56.9663 35.8686 56.9663C28.2671 56.9663 21.5734 53.83 16.7202 48.8339L19.3844 46.2458C23.5807 50.5657 29.3302 53.252 35.8686 53.252C48.6497 53.252 59.1807 42.4896 59.1807 29.199C59.1807 15.9083 48.6497 5.14593 35.8686 5.14593V1.43164Z" fill="#015FFF"/>
<path d="M27.9503 8.8175C28.7312 8.8175 29.3643 8.1658 29.3643 7.36188C29.3643 6.55796 28.7312 5.90625 27.9503 5.90625C27.1693 5.90625 26.5363 6.55796 26.5363 7.36188C26.5363 8.1658 27.1693 8.8175 27.9503 8.8175Z" fill="#015FFF"/>
<path fill-rule="evenodd" clip-rule="evenodd" d="M27.9503 7.76311C28.2454 7.76311 28.3934 7.53219 28.3934 7.3616C28.3934 7.19101 28.2454 6.96008 27.9503 6.96008C27.6551 6.96008 27.5071 7.19101 27.5071 7.3616C27.5071 7.53219 27.6551 7.76311 27.9503 7.76311ZM24.6791 7.3616C24.6791 5.58317 26.0933 4.04883 27.9503 4.04883C29.8073 4.04883 31.2214 5.58317 31.2214 7.3616C31.2214 9.14003 29.8073 10.6744 27.9503 10.6744C26.0933 10.6744 24.6791 9.14003 24.6791 7.3616Z" fill="#015FFF"/>
<path d="M36.1518 5.03235C36.9327 5.03235 37.5658 4.38064 37.5658 3.57672C37.5658 2.7728 36.9327 2.12109 36.1518 2.12109C35.3709 2.12109 34.7378 2.7728 34.7378 3.57672C34.7378 4.38064 35.3709 5.03235 36.1518 5.03235Z" fill="#015FFF"/>
<path fill-rule="evenodd" clip-rule="evenodd" d="M36.1518 3.97796C36.447 3.97796 36.595 3.74703 36.595 3.57644C36.595 3.40586 36.447 3.17493 36.1518 3.17493C35.8566 3.17493 35.7087 3.40586 35.7087 3.57644C35.7087 3.74703 35.8566 3.97796 36.1518 3.97796ZM32.8807 3.57644C32.8807 1.79801 34.2948 0.263672 36.1518 0.263672C38.0088 0.263672 39.423 1.79801 39.423 3.57644C39.423 5.35487 38.0088 6.88921 36.1518 6.88921C34.2948 6.88921 32.8807 5.35487 32.8807 3.57644Z" fill="#015FFF"/>
<path d="M18.0517 48.9913C18.8326 48.9913 19.4657 48.3396 19.4657 47.5357C19.4657 46.7318 18.8326 46.0801 18.0517 46.0801C17.2708 46.0801 16.6377 46.7318 16.6377 47.5357C16.6377 48.3396 17.2708 48.9913 18.0517 48.9913Z" fill="#015FFF"/>
<path fill-rule="evenodd" clip-rule="evenodd" d="M18.0517 47.9369C18.3469 47.9369 18.4949 47.706 18.4949 47.5354C18.4949 47.3648 18.3469 47.1339 18.0517 47.1339C17.7566 47.1339 17.6086 47.3648 17.6086 47.5354C17.6086 47.706 17.7566 47.9369 18.0517 47.9369ZM14.7806 47.5354C14.7806 45.757 16.1947 44.2227 18.0517 44.2227C19.9087 44.2227 21.3229 45.757 21.3229 47.5354C21.3229 49.3139 19.9087 50.8482 18.0517 50.8482C16.1947 50.8482 14.7806 49.3139 14.7806 47.5354Z" fill="#015FFF"/>
<path d="M8.71966 37.6339C9.50059 37.6339 10.1337 36.9822 10.1337 36.1783C10.1337 35.3744 9.50059 34.7227 8.71966 34.7227C7.93873 34.7227 7.30566 35.3744 7.30566 36.1783C7.30566 36.9822 7.93873 37.6339 8.71966 37.6339Z" fill="#015FFF"/>
<path fill-rule="evenodd" clip-rule="evenodd" d="M8.71969 36.5795C9.01486 36.5795 9.16283 36.3486 9.16283 36.178C9.16283 36.0074 9.01486 35.7765 8.71969 35.7765C8.42452 35.7765 8.27654 36.0074 8.27654 36.178C8.27654 36.3486 8.42452 36.5795 8.71969 36.5795ZM5.44855 36.178C5.44855 34.3996 6.86266 32.8652 8.71969 32.8652C10.5767 32.8652 11.9908 34.3996 11.9908 36.178C11.9908 37.9564 10.5767 39.4908 8.71969 39.4908C6.86266 39.4908 5.44855 37.9564 5.44855 36.178Z" fill="#015FFF"/>
<path d="M69.8046 65.8741C70.5855 65.8741 71.2186 65.2224 71.2186 64.4185C71.2186 63.6146 70.5855 62.9629 69.8046 62.9629C69.0236 62.9629 68.3906 63.6146 68.3906 64.4185C68.3906 65.2224 69.0236 65.8741 69.8046 65.8741Z" fill="#015FFF"/>
<path fill-rule="evenodd" clip-rule="evenodd" d="M69.8046 64.8198C70.0998 64.8198 70.2477 64.5888 70.2477 64.4182C70.2477 64.2477 70.0998 64.0167 69.8046 64.0167C69.5094 64.0167 69.3614 64.2477 69.3614 64.4182C69.3614 64.5888 69.5094 64.8198 69.8046 64.8198ZM66.5334 64.4182C66.5334 62.6398 67.9476 61.1055 69.8046 61.1055C71.6616 61.1055 73.0757 62.6398 73.0757 64.4182C73.0757 66.1967 71.6616 67.731 69.8046 67.731C67.9476 67.731 66.5334 66.1967 66.5334 64.4182Z" fill="#015FFF"/>
<path d="M10.1345 52.7784C10.9154 52.7784 11.5485 52.1267 11.5485 51.3228C11.5485 50.5189 10.9154 49.8672 10.1345 49.8672C9.35359 49.8672 8.72052 50.5189 8.72052 51.3228C8.72052 52.1267 9.35359 52.7784 10.1345 52.7784Z" fill="#015FFF"/>
<path fill-rule="evenodd" clip-rule="evenodd" d="M10.1345 51.7241C10.4297 51.7241 10.5776 51.4931 10.5776 51.3225C10.5776 51.1519 10.4297 50.921 10.1345 50.921C9.83931 50.921 9.69134 51.1519 9.69134 51.3225C9.69134 51.4931 9.83931 51.7241 10.1345 51.7241ZM6.86334 51.3225C6.86334 49.5441 8.27745 48.0098 10.1345 48.0098C11.9915 48.0098 13.4056 49.5441 13.4056 51.3225C13.4056 53.101 11.9915 54.6353 10.1345 54.6353C8.27745 54.6353 6.86334 53.101 6.86334 51.3225Z" fill="#015FFF"/>
<path fill-rule="evenodd" clip-rule="evenodd" d="M36.4334 47.171C45.0489 47.171 52.3109 40.0132 52.3109 30.7715H56.0252C56.0252 41.3445 48.1682 49.8409 38.2906 50.7959V55.1137H34.5763V47.171H36.4334Z" fill="#015FFF"/>
<path fill-rule="evenodd" clip-rule="evenodd" d="M15.1021 12.3105V20.6333L14.5771 21.1738C11.0372 24.8179 9.24184 30.3233 10.2635 35.8449L6.61122 36.5207C5.42113 30.0888 7.36333 23.642 11.3878 19.1487V12.3105H15.1021Z" fill="#015FFF"/>
</svg>
