<svg width="70" height="66" viewBox="0 0 70 66" fill="none" xmlns="http://www.w3.org/2000/svg">
<g clip-path="url(#clip0_405_141)">
<path d="M57.5249 8.96447C60.5166 7.65538 64.0069 8.96447 65.1703 11.9099C66.3338 14.8554 65.1703 18.2917 62.1786 19.4372" fill="#015FFF"/>
<path d="M57.5249 8.96447C60.5166 7.65538 64.0069 8.96447 65.1703 11.9099C66.3338 14.8554 65.1703 18.2917 62.1786 19.4372" stroke="#015FFF" stroke-width="2" stroke-miterlimit="10"/>
<path d="M48.5443 1.30859L23.2811 21.5995L30.4279 37.4722L62.6717 33.054L48.5443 1.30859Z" fill="#015FFF" stroke="#015FFF" stroke-width="2" stroke-miterlimit="10"/>
<path d="M4.66345 30.1277L6.3255 34.0549L9.98201 42.4004L11.6441 46.164L25.2729 40.2731L18.1261 24.4004L4.66345 30.1277Z" fill="#015FFF" stroke="#015FFF" stroke-width="2" stroke-miterlimit="10"/>
<path d="M25.8342 46.4587L20.0464 48.9473L26.6314 63.7929L32.4192 61.3044L25.8342 46.4587Z" fill="#015FFF" stroke="#015FFF" stroke-width="2" stroke-miterlimit="10"/>
</g>
<defs>
<clipPath id="clip0_405_141">
<rect width="69" height="66" fill="white" transform="translate(0.5)"/>
</clipPath>
</defs>
</svg>
